<svg width="49" height="49" viewBox="0 0 49 49" fill="none" xmlns="http://www.w3.org/2000/svg">
<path d="M24.0355 1.16546C24.2029 0.745606 24.7971 0.745606 24.9645 1.16546L28.2972 9.52811C30.3301 14.6291 34.3709 18.6699 39.4719 20.7028L47.8345 24.0355C48.2544 24.2029 48.2544 24.7971 47.8345 24.9645L39.4719 28.2972C34.3709 30.3301 30.3301 34.3709 28.2972 39.4719L24.9645 47.8345C24.7971 48.2544 24.2029 48.2544 24.0355 47.8345L20.7028 39.4719C18.6699 34.3709 14.6291 30.3301 9.52811 28.2972L1.16546 24.9645C0.745606 24.7971 0.745606 24.2029 1.16546 24.0355L9.52811 20.7028C14.6291 18.6699 18.6699 14.6291 20.7028 9.52811L24.0355 1.16546Z" fill="#8DA979"/>
</svg>
