<svg width="776" height="726" viewBox="0 0 776 726" fill="none" xmlns="http://www.w3.org/2000/svg">
<path d="M24.0355 291.165C24.2029 290.746 24.7971 290.746 24.9645 291.165L28.2972 299.528C30.3301 304.629 34.3709 308.67 39.4719 310.703L47.8345 314.036C48.2544 314.203 48.2544 314.797 47.8345 314.964L39.4719 318.297C34.3709 320.33 30.3301 324.371 28.2972 329.472L24.9645 337.835C24.7971 338.254 24.2029 338.254 24.0355 337.835L20.7028 329.472C18.6699 324.371 14.6291 320.33 9.52811 318.297L1.16546 314.964C0.745606 314.797 0.745606 314.203 1.16546 314.036L9.52811 310.703C14.6291 308.67 18.6699 304.629 20.7028 299.528L24.0355 291.165Z" fill="#8DA87B"/>
<path d="M558.036 536.165C558.203 535.746 558.797 535.746 558.964 536.165L562.297 544.528C564.33 549.629 568.371 553.67 573.472 555.703L581.835 559.036C582.254 559.203 582.254 559.797 581.835 559.964L573.472 563.297C568.371 565.33 564.33 569.371 562.297 574.472L558.964 582.835C558.797 583.254 558.203 583.254 558.036 582.835L554.703 574.472C552.67 569.371 548.629 565.33 543.528 563.297L535.165 559.964C534.746 559.797 534.746 559.203 535.165 559.036L543.528 555.703C548.629 553.67 552.67 549.629 554.703 544.528L558.036 536.165Z" fill="#8DA87B"/>
<path fill-rule="evenodd" clip-rule="evenodd" d="M418 124.263C418 118.341 412.422 114 406.5 114V114C378.61 114 356 90.9427 356 62.5V62.5C356 57.5284 352.277 53 347.306 53L125 53C100.147 53 80 73.1472 80 98V377C80 401.853 100.147 422 125 422H373C397.853 422 418 401.853 418 377V124.263Z" fill="#A7D3E7"/>
<path fill-rule="evenodd" clip-rule="evenodd" d="M484 146C459.147 146 439 166.147 439 191V412.5C439 416.09 441.91 419 445.5 419V419C476.704 419 502 444.296 502 475.5V475.5C502 479.484 505.045 483 509.028 483H731C755.853 483 776 462.853 776 438V191C776 166.147 755.853 146 731 146H484Z" fill="url(#paint0_linear_20_46)"/>
<path fill-rule="evenodd" clip-rule="evenodd" d="M266.899 438C276.912 438 283.211 454.54 279.116 463.678C275.829 471.011 274 479.135 274 487.672C274 519.981 300.191 546.376 332.5 546.376H445.5C449.822 546.376 454.034 545.904 458.089 545.008C465.557 543.359 474 548.375 474 556.023V681C474 705.853 453.853 726 429 726H68C43.1472 726 23 705.853 23 681V483C23 458.147 43.1472 438 68 438H266.899Z" fill="url(#paint1_linear_20_46)"/>
<circle cx="657" cy="631" r="23" fill="#A7D3E7"/>
<circle cx="694" cy="81" r="14" fill="#C0AEE1"/>
<circle cx="418" cy="52" r="52" fill="#A7D3E7"/>
<path d="M404.5 38.5L432 67M432 67C432 67 424.5 51 433.5 42M432 67C432 67 418 58.5 406.5 67.5" stroke="white" stroke-width="2" stroke-linecap="round"/>
<rect x="288" y="432" width="201" height="103" rx="51.5" fill="#C0AEE1"/>
<circle cx="355.5" cy="483.5" r="20.5" stroke="white" stroke-width="2"/>
<circle cx="377.5" cy="483.5" r="20.5" stroke="white" stroke-width="2"/>
<circle cx="399.5" cy="483.5" r="20.5" stroke="white" stroke-width="2"/>
<circle cx="421.5" cy="483.5" r="20.5" stroke="white" stroke-width="2"/>
<defs>
<linearGradient id="paint0_linear_20_46" x1="608" y1="146" x2="608" y2="643.5" gradientUnits="userSpaceOnUse">
<stop stop-color="#C0AEE1"/>
<stop offset="1" stop-color="#695F7B"/>
</linearGradient>
<linearGradient id="paint1_linear_20_46" x1="248.5" y1="438" x2="249" y2="1072" gradientUnits="userSpaceOnUse">
<stop stop-color="#8DA87B"/>
<stop offset="1" stop-color="#58684D"/>
</linearGradient>
</defs>
</svg>
